<?xml version="1.0" encoding="utf-8"?>
<!-- Generator: Adobe Illustrator 13.0.0, SVG Export Plug-In  -->
<!DOCTYPE svg PUBLIC "-//W3C//DTD SVG 1.1//EN" "http://www.w3.org/Graphics/SVG/1.1/DTD/svg11.dtd" [
	<!ENTITY ns_flows "http://ns.adobe.com/Flows/1.0/">
]>
<svg version="1.1"
	 xmlns="http://www.w3.org/2000/svg" xmlns:xlink="http://www.w3.org/1999/xlink" xmlns:a="http://ns.adobe.com/AdobeSVGViewerExtensions/3.0/"
	 x="0px" y="0px" width="216px" height="216px" viewBox="198 288 216 216" enable-background="new 198 288 216 216"
	 xml:space="preserve">
<defs>
</defs>
<rect x="198" y="288" fill="#FFFFFF" width="216" height="216"/>
<rect fill="none" width="612" height="792"/>
<path fill="#E7E8E9" d="M295.427,396.663c-0.027-0.026-0.058-0.05-0.094-0.066C295.355,396.641,295.389,396.656,295.427,396.663z
	 M295.669,396.664c-0.066-0.021-0.164,0.012-0.242-0.001c0.098,0.094,0.135,0.232,0.125,0.303l0.184-0.133
	C295.704,396.765,295.638,396.732,295.669,396.664z M295.553,396.966l-0.05,0.036C295.531,397.021,295.547,397.002,295.553,396.966z
	 M306.001,400.367c0.168-0.305,0.202-0.74-0.236-0.876c-0.671-0.134-1.144,0.235-1.682,0.404l0.304,0.237l-0.236,0.166
	c0.236,0.169,0.47,0,0.639,0.235l-0.235,0.169c0.235-0.034,0.706-0.235,0.405-0.404c0.369-0.166,0.335,0.337,0.335,0.404
	C305.563,400.669,305.732,400.401,306.001,400.367z M306.809,382.293c-0.402-0.638-0.907-0.3-1.514-0.234
	c0.169,0.102-0.102,0.305-0.335,0.305l0.233,0.167l-0.066,0.067l0.303,0.336l-0.067,0.068h0.807
	C306.438,382.9,306.875,382.666,306.809,382.293z M308.121,399.66c-0.336-0.202-0.707,0-0.977,0.168
	c0.102,0.136,0.304,0.033,0.404-0.102l0.169,0.336c-0.169,0.271-0.304,0.102-0.504,0.236c0.368,0,0.74,0.068,0.974-0.236
	C308.153,399.929,308.256,399.727,308.121,399.66z M307.798,379.939h-0.181C307.668,379.956,307.734,379.939,307.798,379.939z
	 M308.256,379.939l0.404-0.235l-0.134-0.237c-0.405-0.201-0.809,0.034-1.213,0.068h0.808l-0.167,0.336l-0.102-0.067v0.135h-0.055
	c0.063,0,0.122,0.017,0.156,0.102l0.302-0.336l0.102,0.1C308.391,379.871,308.323,379.905,308.256,379.939z M332.479,380.533
	l-0.02-0.038c-0.073,0.052-0.146,0.107-0.218,0.171L332.479,380.533z M329.516,378.814h0.809c0.37,0.237,0.706,0.505,0.302,0.977
	c0.338,0.269,0.74-0.201,0.976,0.067l-0.235,0.169c0.235-0.033,0.472-0.27,0.707-0.067c0.203,0.302-0.235,0.573-0.302,0.875
	l0.57-0.573l0.117,0.233c0.62-0.441,1.302-0.493,1.903-0.704c0.1-0.133,0.236-0.169,0.403-0.169c0-0.065-0.033-0.167,0.066-0.235
	c0.271,0.102,0.573-0.234,0.573-0.573c0.101-0.269,0.371-0.401,0.64-0.469c-0.201-0.169,0.032-0.338,0.067-0.505l0.102,0.099
	c0.065-0.505,0.402-0.57,0.167-0.974c0-0.742-0.74-1.347-1.313-1.683c-0.203,0.235-0.606,0.034-0.875-0.338
	c0.102,0.505-1.109,0-0.741,0.573c-0.504,0.034-1.076-0.068-1.514,0.068l0.236,0.167c-0.539,0.101-0.74,0.606-1.313,0.64
	c-0.168,0.135,0,0.404,0.168,0.404c-0.203,0.674-1.077,0.338-1.446,0.638h0.067c0.269-0.167,0.604,0,0.739,0.169
	c-0.135,0.37-0.471,0-0.638,0.169c0.167,0.201,0.807-0.135,0.638,0.404C330.324,378.58,329.887,378.814,329.516,378.814z
	 M311.99,382.293c0.271,0.101,0.439,0.44,0.811,0.304c0.268,0.034,0.84,0,0.639-0.471c-0.304,0-0.707-0.37-0.875,0
	c0.1,0.302,0.236-0.068,0.404,0.167l-0.102,0.237c-0.203-0.068-0.438,0-0.572-0.237c0-0.1,0-0.201,0.101-0.234
	C312.193,381.96,312.059,382.26,311.99,382.293z M315.693,384.382l0.338,0.167l-0.236,0.237c0.64,0.37,1.784,1.347,3.062,0.74
	c0.305-0.471-0.167-0.841-0.572-0.909c0.034-0.1,0.236-0.201,0.168-0.404c0.136-0.235-0.235-0.706-0.638-0.873
	C316.938,383.272,316.267,383.673,315.693,384.382z M317.008,396.488c0.303-0.167,0.706-0.37,1.043-0.167
	c0.201-0.54,1.043-0.606,0.741-1.383c-0.136-0.404-0.572-0.773-0.978-0.974c0.236-0.305,0.371-0.573,0.641-0.706v-1.38
	c-0.136-0.203-0.438-0.305-0.404-0.573c-0.472,0.032-1.144-0.708-1.683-0.068c-0.673-0.101-0.809,0.573-1.548,0.472l0.102,0.067
	c0.118,0.287-0.1,0.302-0.262,0.335c0.114,0.008,0.179,0.087,0.262,0.17c-0.203,0.167-0.338,0.404-0.571,0.47h0.167
	c0.438,0.37-0.338,0.471-0.404,0.741l0.571,0.068l-0.167,0.235l0.066-0.068c0.169-0.032,0.303,0.034,0.404,0.169l-0.235,0.167
	l0.807,0.135c-0.101,0.335,0.136,0.372,0.337,0.572l-0.269,0.167c0.067,0.068,0.2,0.138,0.169,0.237
	c-0.068,0.068-0.102,0.203-0.237,0.169l0.169,0.235c-0.101,0.136-0.235,0.136-0.337,0.169h0.572c0,0.237-0.269,0.201-0.404,0.336
	h0.237c0.369,0.134,1.345-0.068,1.042,0.536L317.008,396.488z M314.518,392.181c0.019-0.04,0.077-0.056,0.143-0.069
	c-0.023-0.001-0.047-0.004-0.076,0.001L314.518,392.181z M318.284,402.253c-0.134,0.267-0.067,0.638-0.234,0.875l1.111,0.335
	l-0.134,0.133c0.472,0.066,1.209-0.401,1.614-0.233c0.538-0.573,0.908-1.009,0.638-1.852c-0.537-0.235-0.84-0.503-1.379-0.47
	c-0.908-0.069-1.313,0.774-1.783,1.043L318.284,402.253z M318.925,403.698l0.103-0.103c-0.001,0-0.002,0-0.002,0L318.925,403.698z
	 M323.367,388.588c0.033-0.034,0.1-0.1,0.1-0.167c0-0.183-0.179-0.183-0.307-0.127C323.306,388.262,323.448,388.479,323.367,388.588
	z M327.104,389.968h-0.102c0.167,0.303,0.874,0,0.64,0.472h0.334c0.103-0.034,0.271,0.034,0.237,0.169l0.74-0.169
	c0.472-0.169,1.01-0.472,0.976-1.042c-0.168-0.742-0.908-0.508-1.38-0.977c-0.841,0.94-1.145-0.708-2.02-0.169
	c0.169,0.236-0.336,0.404-0.235,0.404l0.067,0.101c-0.101,0.167-0.371,0.235-0.336,0.469l0.269,0.101
	C326.496,389.733,327.034,389.463,327.104,389.968z M331.055,401.378c0.271,0.57,0.539-0.54,0.708,0l0.269-0.237
	c0.472-0.57,0.372-0.2,0.708-0.739c0.235-0.706,0.199-1.011-0.303-1.617c-0.371,0.169-0.674-0.706-1.078-0.235
	c-0.908-0.504-0.774,0.573-1.346,0.336l0.066,0.068c-0.269,0.067-0.202,0.471-0.571,0.471c0.336,0.235-0.304,0.235-0.068,0.339
	c0.473,0.37-0.268,0.335-0.099,0.737l0.269,0.07c0,0.099,0,0.201-0.102,0.234l0.404,0.167l-0.068,0.237
	c0.169,0.033,0.404-0.068,0.571,0.098c0,0.071,0,0.169-0.101,0.237C330.618,401.611,330.787,401.411,331.055,401.378z
	 M329.256,397.804l-0.335,0.066l0.572-0.066H329.256z M290.829,452.9l-2.105,0.932c-0.79,0.546,0.459,0.354,1.535,0.178
	L290.829,452.9z M294.719,450.046c-3.144,1.438-0.801,1.377-1.143,2.011l2.13-1.706l-1.617,1.044
	C291.992,451.771,294.02,450.472,294.719,450.046z M298.453,448.935c-0.042,0.256-1.015,0.826-0.291,0.778
	C299.778,449.279,299.192,448.905,298.453,448.935z M320.927,411.089c0.249,0.74,0.272,1.007,0.137,1.063
	C321.336,412.392,321.655,412.703,320.927,411.089z M321.063,412.152l-0.205-0.221l0.149,0.228L321.063,412.152z M339.377,428.675
	c-0.061,0.064-0.114,0.13-0.163,0.193c0.046,0.028,0.09,0.056,0.139,0.085L339.377,428.675z M323.786,459.258l0.015,0.113
	c1.186-0.841,0.268-0.258,0.504-0.456l-0.214-0.084l-0.388-0.163c0.007,0.048,0.015,0.094,0.021,0.144L323.786,459.258z
	 M339.712,429.156c0.152,0.082,0.312,0.161,0.484,0.232C340.136,428.784,339.923,428.858,339.712,429.156z M319.266,422.139
	C317.754,420.75,318.201,421.161,319.266,422.139L319.266,422.139z M339.712,429.156c-0.126-0.066-0.246-0.136-0.359-0.203
	l-0.124,1.372C339.263,430.044,339.486,429.474,339.712,429.156z M325.188,455.114l0.467-0.563c-0.235-0.92-0.583-1.81-0.89-2.699
	C324.562,453.054,325.093,453.543,325.188,455.114z M323.913,456.145l-0.381-2.261l-0.078,0.899L323.913,456.145z M339.679,430.933
	l-0.295,0.221c-0.08,0.101-0.168,0.193-0.25,0.292c-0.192-0.394-0.396-0.813-0.605-1.242c0.213-0.429,0.301-0.843,0.686-1.335
	c-0.2-0.123-0.388-0.242-0.557-0.338c-0.117,0.172,0.351,0.775-0.567,0.774c-0.48-0.984-0.961-1.971-1.367-2.803
	c0.048,0.001,0.098,0.001,0.141,0.004c-0.047-0.005-0.097-0.01-0.145-0.014c-1.065-2.187-1.604-3.289-0.192-0.392l-0.004,0.004
	l-0.059,0.073l-0.122,0.148l-0.102,0.123c-1.206-0.083-2.565-0.022-3.604,0.094c0.195-0.38-2.624-0.565-0.622-0.984
	c-0.946-0.057-1.964-0.055-2.883-0.084c-0.097,0.001-0.187-0.003-0.28-0.004c-0.275-1.821-0.917-4.033-4.017-5.373
	c1.164,0.498,2.036,1.508,1.656,1.53c-0.888-0.552-1.495-0.873-1.937-1.072c-0.207-0.156-0.436-0.3-0.688-0.562
	c-0.547-3.265-0.995-3.292-1.63-6.091l-0.474,0.469c-0.574-1.944-1.127-1.172-2.057-3.566c0.076-0.22,0.794,0.647,1.151,1.126
	c-0.443-0.76-0.684-1.438-1.217-2.089c-0.216-0.35-0.516-0.538-0.951-0.764c-0.218-0.11-0.471-0.213-0.768-0.303l-0.112-0.033
	l-0.058-0.016l-0.028-0.008l-0.008-0.002h-0.003h-0.002c0.293-0.105-1.511,0.533-2.207,0.779c0.055-0.019,0.104-0.037,0.179-0.063
	l-0.004,0.007l-0.074,0.095l-0.15,0.22l0.05-0.258l0.017-0.083l0.016-0.084l0.002-0.01l0.001-0.004v-0.005h0.001
	c1.051-0.372,1.667-0.591,2.014-0.713c-0.031,0.012,0.007-0.003,0.191-0.067l0,0h0.043l0.084,0.003l0.347,0.017
	c0.468,0.031,0.97,0.114,1.468,0.245c-0.327-0.171-0.694-0.334-1.076-0.467l-0.576-0.185l-0.145-0.037l-0.035-0.012l-0.019-0.004
	l-0.008-0.003c-1.173,0.416,2.619-0.928-2.629,0.93v0.001h-0.002l-0.02,0.023l-0.075,0.093c-0.202,0.244-0.399,0.479-0.574,0.659
	c-0.363,0.361-0.647,0.499-0.645,0.062c-0.78,1.601-4.818,5.54-5.32,8.26l-0.407-0.416c-0.002,0.672-0.658,1.682-1.297,3.011
	c-0.272,0.08-0.509,0.179-0.685,0.311l-0.219-0.212l-2.851,0.806c-1.315-0.07-0.861-0.911-0.969-0.679
	c-2.87,0.122-5.182,0.05-7.072-0.279c-0.494,0.729-3.618,0.833-6.121,1.015c-0.338-0.015-0.679-0.007-1.021,0.004
	c0.071-0.12,0.064-0.109,0,0c-0.419,0.015-0.839,0.035-1.26,0.049l-1.151,0.053l-0.144,0.008l-0.036,0.003
	c-0.52,0.88,1.149-1.972-1.167,1.974l0.004,0.008l0.01,0.019l0.034,0.069l0.14,0.273l0.282,0.549c0.706,1.507,1.708,2.799,2.72,4
	c2.05,2.397,4.326,4.373,6.035,6.622c4.401,4.46,1.663,10.354-1.214,15.021c-0.883,1.373-1.516,3.756-1.981,5.636
	c1.217-2.022,1.086-2.395,2.425-4.454c1.191-1.442,2.226-1.565,3.513-2.762l-0.982,0.396c0.908-2.489,1.249-1.382,1.635-3.564
	l0.886,0.509c-0.142-0.924,0.964-2.61,1.339-3.532c-0.167-0.305-0.357-0.604-0.575-0.899c0.625-1.893,0.354-3.343,0.792-4.158
	l-0.558,0.387c0.381-1.033-3.328-6.284-1.329-4.976c-0.411-0.408-0.965-0.573-1.607-1.48l0.39-0.535
	c-1.157-1.204-2.401-2.261-2.423-2.851c0.655,0.485,1.064,0.521,1.455,0.529c-4.072-4.623-2.586,0.451-5.896-3.422
	c0.045,0.002,0.089,0.002,0.135,0.005c2.003,0.05,4.184,0.302,5.825-0.028c1.282-0.083,2.943,0.828,5.44,0.791l-0.15-0.646
	c0.994,0.356,3.369,0.662,5.826,0.922l1.837,0.182l0.445,0.053l0.22,0.029l0.108,0.015h0.014l0.007,0.003h0.004
	c-2.674,2.105,3.647-2.869,2.996-2.356l0.012-0.013l0.023-0.026l0.371-0.378c0.48-0.483,1.104-0.896,1.658-1.126
	c0.538-1.875-0.217,0.103-0.633-0.19c1.541-4.037,1.987-3.012,3.203-3.948c0.803-1.449-0.981,0.792-0.795-0.172
	c0.679-0.581,1.061-1.05,1.36-1.518c0.927,1.656,1.797,3.618,2.125,4.758c0.059,0.232-0.048,0.267-0.036,0.4v0.162l0.005,0.04
	l0.005,0.021l0.002,0.012v0.003v0.001c1.424,1.31,3.952,3.635,4.393,4.039l-0.008,0.007l-0.124,0.059
	c-0.166,0.205-1.277-0.357-1.462-0.59c-0.291-0.532,0.078,0.879,0.011,2.436l0.008,0.321v0.08l0.002,0.04v0.006
	c1.623,1.745-3.633-3.896,3.638,3.91l0.012,0.003l0.024,0.004l0.188,0.028l0.758,0.109l1.223,0.157
	c-0.902,0.397-1.717,0.771-2.112,0.938c-0.709-0.043,0.56-0.693,0.773-0.979c-2.225,1.232-1.811,1.518-4.883,3.526l-0.161-0.109
	c-1.655,1.427-3.84,4.249-3.771,7.5c0.08,3.048,1.111,4.944,1.575,6.63c0.479,1.501,0.892,3.03,1.208,4.565
	c-1.915-1.149-3.725-2.559-5.5-4.283c-1.516-1.365-3.563-2.848-5.826-3.168c-2.163-0.339-4.039,0.075-5.571,0.649
	c2.093-0.338,5.388-0.243,7.83,1.663c2.352,1.79,4.141,4.153,6.233,4.87c0.748,1.131,2.49,1.779,3.252,2.447
	c0.066,0.398,0.129,0.797,0.176,1.196l0.097,0.664l0.05,0.33l0.026,0.164l0.012,0.082l0.007,0.043l0.003,0.02l0.002,0.01
	c1.55-1.11-2.657,1.909,1.62-1.158c0.079,0.035,0.157,0.079,0.235,0.109l0.5,0.21c-0.038-0.258-0.077-0.513-0.119-0.761
	c0.488-0.349,1.054-0.756,1.726-1.236l-0.004-0.003l-1.201-0.42c0.402,0.218,0.241,0.3,0.35,0.495
	c-0.413-0.164-0.817-0.336-1.219-0.517c-0.057-0.222-0.115-0.442-0.182-0.659c-0.525-2.055-1.301-3.975-2.097-6.759
	c-0.129-0.842,0.307-0.546,0.538-0.871c0.548,1.469,1.084,2.925,1.501,4.433c-0.083-0.956-0.272-1.892-0.43-2.839
	c0.666,1.109,1.064,4.128,1.721,4.364c-0.951-3.95-4.566-10.298-1.702-13.696c-1.501,1.125-1.926,3.711-1.399,5.674
	c-0.023,0.933,0.248,2.301-0.095,2.303c-1.439-2.222-2.082-6.643,0.643-9.033c2.291-2.34,5.094-3.162,7.726-4.384
	c1.346-0.579,2.95-1.292,3.307-1.173c-0.746,0.537-0.014,0.459-0.62,0.93c1.104-0.814,0.546-1.025,0.869-1.492
	c0.599,0.035,1.126,0.082,1.531,0.155l0.025,0.098c0.006-0.031,0.018-0.059,0.024-0.089c0.146,0.027,0.279,0.058,0.387,0.094
	l0.095-0.229c0.526,0.241,1.149,0.433,1.945,0.586c-0.477,0.434-0.965,0.854-1.477,1.256c0.522-0.398,1.026-0.816,1.521-1.246
	c0.518,0.099,1.107,0.18,1.797,0.248l1.355,0.091l0.085,0.005l0.043,0.004h0.021h0.005h0.004c-0.158-0.324-0.621-1.274-1.202-2.466
	C339.344,431.332,339.52,431.14,339.679,430.933z M316.538,414.437C316.236,414.543,316.35,414.503,316.538,414.437L316.538,414.437
	z M316.76,414.359c-0.034,0.013-0.067,0.023-0.098,0.034h-0.004C316.911,414.306,317.163,414.217,316.76,414.359z M320.263,413.361
	l-0.005,0.007l-0.008,0.012l-0.01,0.015c-0.118,0.041-0.334,0.117-0.609,0.214l0.042-0.04c0.213-0.074,0.411-0.146,0.591-0.209
	L320.263,413.361z M336.097,426.624c-0.35,0.374-0.634,0.839-1.098,1.12c0.355-0.128,0.638-0.347,0.955-0.542
	c-0.234,0.474-0.479,0.823-0.743,1.123c-0.819-0.034-1.514-0.045-2.144-0.235c-1.749,0.31,0.124,0.456-0.935,0.827
	c-2.708-0.148-0.301-1.093-1.307-1.735c1.567-0.468,3.953-0.669,5.374-0.684L336.097,426.624z M338.265,429.663
	c0.051-0.096,0.099-0.191,0.14-0.296c0.462-0.176,0.442,0.222,0.101,0.789C338.425,429.993,338.346,429.829,338.265,429.663z
	 M322.731,412.583c-0.594-0.805-0.583-0.724-1.349-2.008l0.162,0.505C322.146,411.665,322.192,412.083,322.731,412.583z
	 M302.183,419.05c1.393-0.144,0.188-0.553,0.587-0.876C301.887,419.144,301.021,418.134,302.183,419.05z M299.19,419.276
	c-1.071-0.471-1.122,0.034-1.736,0.212C298.275,419.544,298.736,419.411,299.19,419.276z M263.462,345.429l-1.3,0.776l3.092,0.014
	C266.519,346.022,264.859,345.72,263.462,345.429z M255.848,347.13c4.601,0,1.714-0.913,2.469-1.353l-3.535,0.683l2.542-0.298
	C260.113,346.711,256.913,347.02,255.848,347.13z M300.419,372.484c-0.031,0.562-0.014,1.234-0.174,1.167
	C300.486,374.255,300.638,374.349,300.419,372.484z M300.245,373.651l-0.15-0.393l0.094,0.374
	C300.214,373.666,300.226,373.641,300.245,373.651z M316.979,353.454L316.979,353.454
	C316.922,354.18,316.897,354.485,316.979,353.454z M241.934,346.526l-0.028-0.064l-0.014-0.034
	c-0.218,0.351,0.487-0.789-0.491,0.784h0.004l0.01-0.002l0.019-0.002l0.151-0.017c0.054-0.007,0.104-0.014,0.157-0.02
	c0.086-0.138,0.182-0.291,0.276-0.441L241.934,346.526z M254.566,388.787l-0.013-0.215l-0.056-0.436
	c-0.008-0.077-0.002-0.16-0.002-0.239c-0.25,0.221-0.505,0.434-0.766,0.622C254.321,388.709,254.745,388.845,254.566,388.787z
	 M280.418,375.833c-0.268-0.09-0.529-0.134-0.815-0.157C279.939,375.742,280.216,375.802,280.418,375.833z M279.603,375.675
	c-0.674-0.134-1.582-0.289-2.591-0.255C278.221,375.652,278.972,375.623,279.603,375.675z M286.01,380.905
	c0.286-0.109,1.342,0.21,2.661,1.239c0.054,0.465-1.188-0.326-1.483-0.165c1.021,0.871,1.984,1.376,2.666,2.126
	c2.204,0.915,0.101-0.467,1.51-0.081c3.132,1.687-0.148,1.159,0.816,2.325c-2.875-0.573-6.119-2.972-7.315-3.669
	c1.357,0.984,3.006,2.261,4.686,3.037c-0.553,0.205,3.221,2.34,0.278,1.294c1.243,0.746,2.863,1.401,3.967,1.812
	c0.878,0.287,1.363,0.777,2.458,1.775c1.088,0.924,2.091,2.323,4.648,3.101c0.689,0.172,1.424,0.22,2.241,0.013l0.289-0.068
	l0.142-0.036l0.035-0.01l0.018-0.004l0.008-0.002c-0.373,0.53,3.291-4.635,1.739-2.45l-0.004-0.036l-0.036-0.285l-0.072-0.565
	c-0.107-0.743-0.172-1.48-0.32-2.161c-0.006,0.801-0.04,1.836-0.275,1.685c-0.46-2.816-0.165-2.514,0.05-3.168
	c-0.691-2.004-1.343-1.541-2.114-2.589c-0.75-3.991-1.385-4.396-1.583-7.708l-0.567,0.37c-0.011-0.433-0.059-0.79-0.127-1.1
	c0.042-0.026,0.084-0.051,0.125-0.086c0-0.135-0.034-0.302-0.168-0.404c-0.034-0.005-0.064-0.009-0.097-0.014
	c-0.324-0.981-0.811-1.565-0.688-3.24c0.11-0.135,0.301,0.716,0.6,1.42c-0.448-2.053,0.312-1.796,0.323-3.604
	c0.188,0.522,0.275,0.998,0.534,1.445c0.004-1.3,0.529-3.28,0.869-2.399c-0.021-2.53,3.528-6.19,6.274-8.653l0.153,0.585
	c1.017-1.739,5.777-4.071,6.817-5.698l0.372,0.025l1.471-1.437l0.045-0.046l0.024-0.021l0.001-0.002
	c0.092-1.161,0.27-3.403,0.237-3.001l-0.003-0.004l-0.009-0.004l-0.017-0.01l-0.131-0.078l-0.26-0.154l-0.519-0.302
	c-0.343-0.203-0.681-0.397-1.052-0.524c-0.44-0.279-0.711-0.51-0.874-0.698c0.008-0.113,0.01-0.126-0.001,0
	c-0.484-0.558-0.009-0.728-0.183-0.65c-4.43-1.748-7.772-1.407-10.406-1.735c-0.671,0.712-4.866,1.203-8.088,1.454
	c-0.974,0.006-1.939-0.015-2.892-0.062l-0.242-0.023l-0.076-0.509c-0.265-2.103-0.887-4.193-1.675-6.146
	c-1.448-3.927-3.869-7.66-6.309-10.796c-1.174-1.617-2.236-3.238-3.001-4.952l-0.266-0.649l-0.135-0.323l-0.034-0.08l-0.017-0.04
	l-0.008-0.021l-0.004-0.011c1.137,0.603-1.552-0.833-1.283-0.681l-0.294,0.159c-0.799,0.484-0.986,0.89-1.362,1.325
	c-0.045,0.06-0.084,0.119-0.128,0.179c-0.034-0.018-0.063-0.033-0.097-0.052l0.003,0.019l0.006,0.036
	c0.005,0.037,0.007,0.068,0.011,0.104c-0.546,0.759-1.015,1.519-1.473,2.271c-2.059,3.274-4.034,7.019-4.321,10.722
	c0.061,2.061-3.074,5.121-2.582,6.835c0.452-2.054,1.75-2.217,3.227-5.552c1.032-2.484,1.741-3.331,2.891-4.682
	c-0.367,0.231-0.592,0.392-0.913,0.62c0.786-2.976,1.123-1.888,1.851-4.293l0.804,0.628c-0.058-0.719,1.055-2.056,1.874-2.863
	c1.163,2.177,2.858,4.768,1.242,3.615c0.483,0.474,1.084,0.733,1.795,1.9l-0.414,0.528c1.273,1.483,2.319,3.058,2.218,3.648
	c-0.573-0.712-0.947-0.824-1.369-0.943c3.138,6.461,2.854,0.345,5.332,6.595l-0.418,0.051l0.882,1.515
	c0.026,0.611-0.102,1.241-0.17,1.843c0.222,0.264,0.412,0.611,0.576,1.023l0.119,0.319l0.056,0.169l0.008,0.023l0.001,0.002
	c-1.769-1.776,2.41,2.422,1.979,1.989h0.008h0.014l0.054-0.002l0.11-0.004l0.918-0.002c1.268,0.017,2.674,0.034,4.113,0.029
	c2.877-0.019,5.84-0.072,7.939-0.469c1.454-0.091,3.356,0.483,5.538,1.064c-1.898,0.896-3.641,1.633-4.689,1.792
	c-1.858,2.001,0.306-0.07,0.559,0.385c-3.745,3.669-4.615,3.284-6.99,5.208c-2.131,2.887,1.999-1.875,1.076-0.103
	c-3.664,4.007-2.81,3.498-5.081,10.417c-0.484,0.702,0.026-2.003,0.15-2.788c-1.378,4.593,0.351,10.639,1.993,15.391
	c-1.085-0.5-1.803-0.722-2.368-1.059c-1.512-0.708-2.887-1.733-3.959-2.817l-0.236,0.105c-0.196-0.368-1.303-1.339-2.307-2.088
	c-0.805-0.59-1.771-1.086-2.266-1.427c-0.663-0.354-0.955-0.65-0.941-0.631l-0.067-0.015l-0.01-0.002h-0.004h-0.003h-0.001
	c1.684,1.467-2.294-2-1.886-1.643l-0.12-0.055l-0.242-0.108l-0.975-0.431c-0.723-0.251-1.422-0.537-2.295-0.693
	c1.083,0.299,2.03,0.736,2.812,1.213c-3.422-1.175-7.162-1.143-10.078,0.794c-0.635,0.114-1.29,0.263-1.856,0.396
	c-2.279,1.958-0.731,1.267-2.01,2.674c-1.661,0.949-5.334,3.01-6.551,3.452c-0.81,0.006,0.695-0.761,0.953-1.074
	c-0.929,0.493-1.468,0.859-1.946,1.206c0.545-2.312,0.444-4.686,0.311-6.253c-0.114-2.539-0.002-3.627,1.166-5.032
	c-0.313,0.332-0.347,0.146-0.569,0.199l0.219-0.275l0.108-0.142l0.054-0.071l0.026-0.036l0.014-0.019l0.003-0.004
	c0.133-6.985,0.033-1.94,0.06-3.5l-0.014-0.013l-0.96-0.797c-0.656-0.579-1.288-0.947-1.923-1.336
	c-1.286-0.763-2.284-1.354-3.12-2.012c-1.568-1.351-2.85-3.963-4.994-6.235c-2.149-2.164-4.304-3.553-6.023-5.127
	c-0.731-0.677-1.428-1.35-1.917-2.056l0.98-0.311c-0.346,0.057-0.708,0.11-1.083,0.162c-0.033-0.051-0.075-0.102-0.105-0.153
	l-0.198-0.307l-0.101-0.154l-0.052-0.078l-0.013-0.019l-0.006-0.009l-0.003-0.006c0.384-0.618,0.08-0.132-0.263,0.416l0.025,0.06
	l0.13,0.326c-0.144,0.019-0.284,0.038-0.431,0.056c-0.19,0.305-0.33,0.53-0.272,0.438l0.051-0.015l0.755-0.221
	c0.116,0.362,0.38,0.683,0.583,1.037c0.929,1.437,2.269,2.821,3.667,4.146c3.022,2.435,5.172,5.986,7.234,7.884
	c0.769,2.044,4.124,2.94,4.527,4.088c0.681,0.815,2.071,0.74,1.843,2.492c-0.578,0.645-1.076,1.277-1.33,1.995
	c-0.571,1.397-0.568,2.775-0.391,4.183c0.251,2.118,0.847,5.32-0.666,8.4c-0.352,0.183-0.755,0.382-1.228,0.604l-0.087-0.08
	c0.781-1.406,1.433-2.961,1.422-4.585c-0.15,1.306-0.72,2.562-1.426,3.625c0.909-1.493,1.243-5.529,0.564-5.984
	c0.633,2.405-0.228,5.164-1.884,7.701c-0.679,0.446-1.367,0.922-2.06,1.454c-0.576,0.382-1.104,0.919-1.658,1.388l-0.411,0.366
	l-0.208,0.184l-0.102,0.09l-0.052,0.047l-0.026,0.021c-0.446-0.142,0.74,0.241,2.278,0.736l0.03-0.026
	c-0.002,0.011-0.002,0.023-0.005,0.034c0.164,0.053,0.332,0.107,0.502,0.162c0.054-0.261,0.119-0.521,0.204-0.775
	c0.492-0.389,1.016-0.72,1.539-1.053c-0.31,0.695-0.531,1.341-0.612,1.926c-0.084,0.059-0.167,0.124-0.251,0.185
	c0.073,0.024,0.145,0.047,0.218,0.07c-0.004,0.071,0.002,0.138,0.002,0.207c0.057-0.051,0.114-0.1,0.17-0.151
	c2.509,0.808,4.719,1.519,1.893,0.608v-0.002l0.001-0.002c0.018-0.064,0.012-0.116-0.021-0.177c-0.375-0.414,0.84-2.293,2.29-4.611
	c2.315-1.05,4.673-1.947,6.922-3.192c1.682-0.855,3.598-2.251,4.094-2.253c-0.938,0.854-0.017,0.488-0.757,1.228
	c2.08-1.874-0.633-1.019,2.907-3.466l0.179,1.232c0.495-2.104,5.333-2.877,8.416-1.67c0.336,0.392,0.231,0.453-0.17,0.393
	c0.478,0.161,0.977,0.475,1.674,1.131c-0.365,0.008-1.529-0.651-2.223-0.476c2.554,0.609,2.669,2.514,3.811,3.365
	c0.243-0.106-0.352-1.359,1.93,0.146C286.517,380.814,285.866,380.635,286.01,380.905z M280.63,326.539L280.63,326.539
	c0.015-0.011,0.032-0.025,0.045-0.036l0.314-0.144c0.009,0.025-0.063,0.116-0.11,0.152l-0.09,0.055l-0.046,0.021l-0.006,0.002
	h-0.003l-0.001,0.002h-0.001C280.693,326.572,280.66,326.554,280.63,326.539C280.89,326.676,281.302,326.896,280.63,326.539z
	 M253.353,388.345c0.305-0.257,0.612-0.499,0.922-0.726c-0.295-0.095-0.59-0.19-0.879-0.283c-0.014,0.066-0.03,0.133-0.042,0.2
	C253.248,387.649,253.305,388.021,253.353,388.345z M253.353,388.345c-0.015,0.013-0.03,0.025-0.045,0.038
	c-0.161-0.052-0.325-0.105-0.487-0.157c0.014,0.256,0.044,0.512,0.114,0.764c0.105-0.045,0.208-0.105,0.312-0.164
	c0.116,0.104,0.152,0.051,0.151-0.083c0.111-0.068,0.222-0.146,0.332-0.225c-0.118-0.038-0.241-0.078-0.369-0.119
	C253.358,388.382,253.355,388.363,253.353,388.345z M252.868,387.166l-0.642,0.545l-0.137,0.118l-0.069,0.059l-0.035,0.03
	l-0.017,0.016l-0.008,0.008l-0.004,0.004c-1.252-0.403-0.249-0.079,0.864,0.28c-0.019-0.349,0.006-0.7,0.073-1.051
	C252.885,387.172,252.876,387.169,252.868,387.166z M255.701,374.08c0.148,1.215,0.333,2.349,0.305,3.422
	c0.599-1.292,0.149-2.024,0.228-4.085L255.701,374.08z M257.64,372.271l0.092,3.09l0.185-1.186L257.64,372.271z M273.237,378.669
	c1.801-1.553,3.913-2.393,6.183-1.571l-0.392-0.217C276.852,376.285,274.903,377.204,273.237,378.669z M301.005,372.647
	c0.398,0.643,0.359,1.608,0.784,2.287c-0.385-0.915-0.495-1.784-0.76-2.695L301.005,372.647z M315.025,346.339
	c2.462,1.152,0.583-0.328,1.436-0.234C314.433,346.077,313.338,344.706,315.025,346.339z M309.897,345.116
	c-1.663-0.651-1.805-0.167-2.727-0.015C308.42,345.205,309.157,345.158,309.897,345.116z M347.37,396.153l-0.676,0.833l1.67-0.121
	C349.045,396.66,348.164,396.358,347.37,396.153z M343.471,398.45c2.38-0.524,0.777-1.103,1.115-1.622l-1.771,1.076l1.294-0.581
	C345.641,397.54,343.997,398.223,343.471,398.45z M340.752,398.691c0.037-0.244,0.766-0.642,0.243-0.713
	C339.801,398.146,340.23,398.616,340.752,398.691z M372.952,394.301C373.311,394.56,373.133,394.431,372.952,394.301
	L372.952,394.301z M374.691,417.541l-0.002-0.001l-0.003-0.004l-0.033-0.039l-0.063-0.073l-0.13-0.146
	c-0.531-0.644-1.051-1.146-1.54-1.562c1.529-2.085,2.46-3.351,0.566-0.773l-0.005-0.001l-0.014-0.004l-0.025-0.012l-0.054-0.017
	l-0.105-0.037l-0.426-0.151l-0.854-0.305c-0.597-0.204-1.08-0.398-1.571-0.595c-0.016-0.007-0.028-0.013-0.044-0.019
	c0.033-0.058,0.066-0.113,0.086-0.174c-0.242-0.157-0.528-0.157-0.812-0.128c-0.313-0.144-0.592-0.291-0.855-0.441
	c0.116-1.202,0.313-1.743,0.047-4.194l-0.509,0.414c-0.131-0.729-0.399-1.066-0.714-1.318c0.049-0.063,0.105-0.13,0.144-0.191
	c0.334-0.469,0.595-0.706,0.661-0.239c0.072-0.245,0.141-0.489,0.209-0.732c0.218,0.236,0.438,0.494,0.681,0.688
	c-0.228-0.268-0.451-0.505-0.671-0.724c0.663-2.37,1.148-4.606,1.629-5.69l0.393,0.405c-0.175-0.991,2.518-3.127,2.2-5.096
	l0.289-0.181c0.028-0.277,0.03-0.59-0.032-0.973l-0.088-0.52l-0.056-0.252l-0.03-0.123l-0.008-0.029l-0.001-0.005
	c-0.056-0.041-0.097-0.07-0.129-0.093c-0.34-0.247-0.984-0.713-2.132-1.543h-0.001l-0.004,0.002l-0.009,0.004l-0.033,0.019
	l-1.057,0.588c-1.014,0.139-0.841-0.738-0.878-0.499c-2.088,0.653-3.575,1.042-4.648,0.764c-0.244,0.82-2.1,0.978-3.197,0.173
	c-2.475-2.229-3.746-6.721-7.245-9.805l0.022-0.178l0.013-0.1v-0.006l0.001-0.002c0.344-0.186,0.689-0.373-0.229,0.124
	c-0.125-0.106-0.245-0.214-0.375-0.316l-0.763-0.513l-0.382-0.25l-0.19-0.125l-0.006-0.004c-0.803,0.431,1.787-0.968-1.799,0.963
	l-0.001,0.013l-0.001,0.023v0.048l-0.004,0.096l-0.024,1.526l-0.032,0.468c-0.034,0.019-0.065,0.035-0.101,0.054h0.002l0.006,0.006
	l0.011,0.01l0.025,0.021l0.048,0.045l-0.176,2.602c-0.136,2.231,0.353,4.301,0.396,6.23c-0.04,1.058,0.195,3.086-1.062,4.539
	c1.683-1.358,1.495-1.976,1.991-3.844c0.412-1.41,1.128-1.995,1.587-3.185l-0.613,0.613c-0.515-1.762,0.197-1.304-0.247-2.46
	c1.087,0.67,1.559-1.115,3.168,1.446l-0.381,0.173l0.912,0.66l0.204,1.247c1.104,0.266,1.668,1.458,3.417,2.875
	c1.645,1.31,4.141,1.853,5.44,1.278c0.167-0.023,0.348-0.028,0.534-0.025c-0.996,1.814-1.772,2.284-2.499,3.303
	c-0.229,1.746,0.646-1.192,0.812-0.143c-1.233,2.097,0.185,2.313-1.008,3.229c-0.346-0.186,0.034-0.366-0.125-0.629
	c0.03,0.143,0.002,0.251-0.036,0.367l-0.026,0.093l-0.016,0.048l-0.004,0.013c-0.118,3.776-0.165,5.271-0.179,5.728
	c0.014-0.423,0.045-1.418,0.011-0.33l0.003,0.003l0.002,0.002l0.007,0.007l0.013,0.011l0.052,0.042l0.413,0.369
	c0.092,0.083,0.167,0.156,0.246,0.232c-0.269-0.109-0.51-0.221-0.746-0.336c-0.383-0.188-0.765-0.378-1.289-0.563l-0.317-0.908
	l-0.226-0.067L360,408.41l-0.045-0.01l-0.022-0.004l-0.006-0.003h-0.001c-0.603,0.116-4.083,0.785-6.043,1.162v0.001h-0.002
	l-0.001,0.005l-0.019,0.141l0.074,0.233c0.076,0.145,0.181,0.278,0.114,0.602c-0.628,0.098-1.99,1.137-2.598,1.294
	c-0.416-0.178,0.244-0.55,0.302-0.775c-0.194,0.114-0.346,0.227-0.476,0.336c0.113-0.805,0.177-1.675,0.109-2.601l-0.064-0.752
	l-0.02-0.188l-0.001-0.012c-1.357-1.457-2.063-2.216-2.4-2.578c0.169,0.182,0.3,0.321-0.015-0.017l0,0
	c-0.021-0.022-0.033-0.034-0.051-0.054c0.017,0.018,0.034,0.035,0.051,0.054v0.001c-0.005,0.031-0.082-0.004-0.168-0.03
	c-0.37-0.252-1.838-1.144-2.593-1.207c0.438,0.184,0.273,0.276,0.393,0.458c-4.161-1.226-4.432-0.47-6.54-3.357
	c-1.078-1.45-3.326-2.374-4.067-2.533l-0.613-0.285h-0.003c0.053-0.165-0.088,0.277-0.269,0.846l0.083,0.085
	c0.103,0.122,0.237,0.229,0.381,0.328c-0.206,0.039-0.416,0.076-0.631,0.113c-0.313,0.987-0.618,1.951-0.268,0.845l0.008-0.001
	l0.013-0.007l0.028-0.013l0.056-0.025l0.111-0.051l0.22-0.104l0.432-0.211c0.161-0.082,0.314-0.166,0.472-0.249
	c0.32,0.209,0.668,0.414,1.012,0.647c1.798,1.309,2.703,3.545,4.195,3.767c0.526,1.007,2.406,0.779,2.73,1.529
	c1.06,0.329,2.055,0.6,2.877,1.094c0.393,0.259,0.729,0.417,1.033,0.545l0.466,0.064l0.11,0.015l0.026,0.005
	c0.263,0.278-0.569-0.622,0.593,0.625l0.004,0.021l0.016,0.077l0.063,0.317c0.336,1.356,0.256,2.801-0.044,4.326
	c-0.038,0.012-0.072,0.025-0.112,0.038l-0.091-0.162c-0.243,0.139-0.493,0.269-0.743,0.402c0.12-0.719,0.245-1.449,0.323-2.192
	l-0.755,1.965c0.002-0.928,0.602-3.039-0.024-3.31c0.246,1.122-0.117,2.54-0.425,4.015c-0.105,0.06-0.207,0.109-0.315,0.173
	l-1.046,0.606l-0.262,0.149l-0.034,0.02l-0.004,0.001c1.937,0.866-2.974-1.322,1.393,0.626c-0.037,0.326-0.057,0.652-0.044,0.974
	l0.271-0.14c0.067-0.036,0.136-0.066,0.204-0.102c0.01-0.088,0.033-0.171,0.079-0.246c0.031-0.067,0.063-0.142,0.097-0.216
	c0.127,0.057,0.266,0.117,0.405,0.18c0.155-0.07,0.312-0.133,0.467-0.192c0.009,0.143,0.021,0.282,0.034,0.417
	c0.647,0.288,1.4,0.624,2.296,1.023v-0.003l-0.001-0.004l-0.006-0.022l-0.014-0.044l-0.064-0.184
	c-0.164-0.39-0.164-1.058-0.008-1.975c1.174-0.382,2.298-0.75,3.272-1.343c0.796-0.438,1.66-1.1,1.974-1
	c-0.347,0.482,0.171,0.403-0.129,0.827c0.428-0.526,0.217-0.789,0.132-1.022c-0.047-0.117-0.077-0.24-0.014-0.396
	c0.03-0.079,0.085-0.166,0.173-0.265l0.035-0.039l0.001-0.001c0.969-0.186,2.841-0.546,2.506-0.48h0.001l0.004,0.003l0.009,0.004
	l0.017,0.006l0.032,0.015l0.139,0.068l0.319,0.173l-0.761,0.862c1.313-0.645,2.259,1.334,3.972,1.475
	c0.296,0.675-0.748,0.37-1.818-0.113c1.115,0.765,1.519,0.281,2.484,0.809l-1.355,0.35c1.441-0.254,1.746,1.137,2.15,1.698
	c0.144-0.136,0.088-0.707,0.666-0.595c0.031,0.071,0.053,0.137,0.086,0.212c0.685,1.342,1.515,2.384,2.253,3.208
	c-0.988-0.192-1.91-0.47-2.434-0.605c0.888,0.41,1.794,0.652,2.693,0.894c0.381,0.414,0.724,0.766,0.998,1.073
	c-0.031,0.079-0.201,0.12-0.621,0.097c0.325,0.136,0.669,0.266,1.019,0.39c0.099,0.14,0.17,0.269,0.208,0.386l0.063,0.08
	l0.001,0.003c-0.161,0.221-0.054,0.073,0.227-0.309c0.223,0.072,0.444,0.148,0.666,0.211l1.089,0.279l0.556,0.126l0.277,0.06
	l0.017,0.004l0.009,0.003C370.865,422.754,377.503,413.718,374.691,417.541z M366.769,408.099l-0.134,0.563l-0.051,0.186
	l-0.006,0.024l-0.004,0.012c0.006-0.195,0.013-0.415,0.021-0.649c0.058-0.074,0.117-0.156,0.177-0.248
	C366.771,408.025,366.77,408.062,366.769,408.099z M366.793,407.322c-0.056-0.056-0.111-0.115-0.165-0.182
	c0.005-0.143,0.01-0.284,0.014-0.42c0.052,0.022,0.107,0.048,0.167,0.079C366.803,406.985,366.797,407.16,366.793,407.322z
	 M366.816,406.56c-0.076-0.117-0.124-0.222-0.159-0.324c0.017-0.53,0.028-0.924,0.03-0.987c0,0.01,0,0.021-0.001,0.044h0.001h0.001
	h0.002l0.005,0.002l0.035,0.007l0.073,0.01l0.052,0.008C366.841,405.779,366.828,406.192,366.816,406.56z M346.794,416.228
	l-0.175,0.093l-0.087,0.047l-0.043,0.022l-0.022,0.011l-0.006,0.004c0.16,0.072,0.308,0.138,0.449,0.201
	c-0.015-0.14-0.032-0.277-0.037-0.42L346.794,416.228z M347.4,417.296c0.089-0.113,0.098-0.267,0.074-0.438
	c-0.17-0.076-0.357-0.159-0.564-0.252c0.031,0.293,0.079,0.58,0.151,0.852c-0.014,0.006-0.027,0.013-0.041,0.02
	c0.017-0.003,0.028-0.007,0.043-0.01c0.009,0.031,0.014,0.067,0.023,0.101c0.331,0.29,0.763-0.03,1.163-0.365
	c-0.098-0.043-0.209-0.093-0.333-0.148C347.747,417.132,347.574,417.212,347.4,417.296z M347.348,415.944
	c-0.032,0.286,0.089,0.625,0.127,0.913c0.164,0.072,0.312,0.139,0.442,0.196c0.229-0.103,0.452-0.188,0.676-0.257
	c-0.079-0.279-0.13-0.582-0.163-0.91c-0.177-0.079-0.342-0.152-0.501-0.225C347.734,415.751,347.541,415.847,347.348,415.944z
	 M348.617,416.901c0.108-0.083,0.213-0.156,0.305-0.195c-0.109,0.021-0.22,0.057-0.329,0.091
	C348.603,416.831,348.607,416.868,348.617,416.901L348.617,416.901z M334.882,398.99l-0.114-0.11l-0.058-0.056l-0.003-0.003
	c-0.132,0.408,0.288-0.917-0.292,0.915h0.003l0.011-0.001l0.022-0.004l0.044-0.007c0.124-0.02,0.244-0.042,0.365-0.062
	c0.058-0.18,0.113-0.357,0.167-0.526L334.882,398.99z M348.837,405.191C348.653,404.994,348.495,404.824,348.837,405.191
	L348.837,405.191z M348.748,417.421L348.748,417.421l-0.002-0.009l-0.129-0.511c-0.117,0.092-0.239,0.194-0.367,0.301
	C349.966,417.967,347.914,417.05,348.748,417.421z M353.883,409.556L353.883,409.556
	C351.805,409.954,352.419,409.837,353.883,409.556z M348.866,405.209l-0.004,0.003l-0.003,0.001h-0.001
	c0.011,0.013,0.02,0.021,0.029,0.032c0-0.007,0.002-0.013-0.005-0.027L348.866,405.209z M359.924,408.394h0.002
	C360.042,408.372,360.055,408.369,359.924,408.394z M346.354,409.079c0.167,0.471,0.182,1.033,0.212,1.623
	c0.531-0.614,0.28-1.048,0.322-1.902L346.354,409.079z M348.568,409.139c-0.156-0.331-0.07-0.755-0.423-0.974
	c0.271,0.438,0.184,1.08,0.188,1.61C348.442,409.571,348.511,409.357,348.568,409.139z M357.45,413.754
	c1.248,0.49,2.521,0.96,3.742,1.463l-0.184-0.194L357.45,413.754z M368.315,390.932c1.082-0.404,0.016-0.573,0.272-0.966
	C368.084,391.082,367.247,390.264,368.315,390.932z M365.246,392.164c0.463-0.03,0.754-0.255,1.015-0.462
	C365.455,391.437,365.569,391.915,365.246,392.164z"/>
</svg>
